<svg width="150" height="104" viewBox="0 0 150 104" fill="none" xmlns="http://www.w3.org/2000/svg">
<path d="M99.7795 13.3884L22.9437 0.691772C19.779 0.168829 15.8607 -0.395735 12.75 0.384658C7.64246 1.66602 0.833576 5.55939 0.0705816 16.1885C-0.918497 29.967 8.76465 33.5433 11.7661 34.3174C12.3424 34.466 12.9293 34.5588 13.5153 34.6639L28.0585 37.2733C29.4499 37.5229 30.471 38.6959 30.5691 40.0993C31.3928 51.8807 38.5579 103.125 100.889 103.125C132.599 103.125 146.409 84.5515 148.059 82.1536C148.176 81.9836 148.281 81.8166 148.38 81.6354C149.134 80.2504 152.259 73.6975 147.06 68.5248C145.356 66.8285 143.502 65.9982 141.73 65.6729C136.263 64.6686 131.73 69.1889 127.353 72.5997C121.907 76.843 114.25 81.1488 106.149 81.3182C73.2429 82.006 73.0872 49.0093 73.7454 40.162C73.8516 38.7343 75.064 37.7045 76.5028 37.7045H94.1054C98.6125 37.7045 103.437 37.5073 106.814 34.5376C108.941 32.6676 110.824 29.7966 110.824 25.4927C110.824 17.6282 104.536 14.7321 101.965 13.8766C101.254 13.6401 100.519 13.5105 99.7795 13.3884Z" fill="white"/>
</svg>
