<svg width="150" height="150" viewBox="0 0 150 150" fill="none" xmlns="http://www.w3.org/2000/svg">
<path d="M68.7563 62.5H81.2562V93.75H68.7563V62.5ZM68.75 100H81.25V112.5H68.75V100Z" fill="#6B6B6B"/>
<path d="M86.0499 26.2496C83.8749 22.1558 79.6374 19.6121 74.9999 19.6121C70.3624 19.6121 66.1249 22.1558 63.9499 26.2558L18.0874 112.9C17.0697 114.802 16.5656 116.937 16.6248 119.094C16.684 121.251 17.3044 123.356 18.4249 125.2C19.5293 127.052 21.0977 128.584 22.9752 129.645C24.8528 130.706 26.9746 131.259 29.1312 131.25H120.869C125.294 131.25 129.3 128.987 131.581 125.2C132.7 123.355 133.319 121.251 133.378 119.094C133.438 116.938 132.935 114.803 131.919 112.9L86.0499 26.2496ZM29.1312 118.75L74.9999 32.1058L120.9 118.75H29.1312Z" fill="#6B6B6B"/>
</svg>
