<svg width="150" height="150" viewBox="0 0 150 150" fill="none" xmlns="http://www.w3.org/2000/svg">
<path d="M75 18.7502C99.5324 18.7502 122.239 26.6047 140.725 39.9342C143.524 41.9518 143.931 45.8998 141.763 48.5833V48.5833C139.592 51.2702 135.664 51.6687 132.849 49.6676C115.995 37.688 95.7805 31.2196 75 31.2501C56.4082 31.2196 38.1796 36.3987 22.3813 46.2001L75 111.356L103.61 75.9322C106.573 72.2643 112.5 74.359 112.5 79.0738V81.285C112.5 83.5716 111.716 85.7892 110.28 87.5681L82.7794 121.618C78.7769 126.574 71.223 126.574 67.2204 121.618L10.5856 51.4981C7.11939 47.2066 7.76092 40.877 12.3389 37.7991C30.7975 25.3891 52.607 18.7135 75 18.7502ZM132.5 118.75C135.261 118.75 137.5 120.989 137.5 123.75V126.25C137.5 129.012 135.261 131.25 132.5 131.25H130C127.239 131.25 125 129.012 125 126.25V123.75C125 120.989 127.239 118.75 130 118.75H132.5ZM132.5 62.5001C135.261 62.5001 137.5 64.7387 137.5 67.5001V101.25C137.5 104.012 135.261 106.25 132.5 106.25H130C127.239 106.25 125 104.012 125 101.25V67.5001C125 64.7387 127.239 62.5001 130 62.5001H132.5Z" fill="#6B6B6B"/>
</svg>
