<svg width="25" height="25" viewBox="0 0 25 25" fill="none" xmlns="http://www.w3.org/2000/svg">
<path d="M23.7529 21.5779H7.03553C6.34652 21.5779 5.78809 21.0195 5.78809 20.3305C5.78809 19.6414 6.34652 19.083 7.03553 19.083H23.7525C24.4415 19.083 25 19.6414 25 20.3305C25 21.0195 24.4419 21.5779 23.7529 21.5779Z" fill="white"/>
<path d="M23.7529 13.7478H7.03553C6.34652 13.7478 5.78809 13.1894 5.78809 12.5004C5.78809 11.8114 6.34652 11.2529 7.03553 11.2529H23.7525C24.4415 11.2529 25 11.8114 25 12.5004C25.0004 13.1894 24.4419 13.7478 23.7529 13.7478Z" fill="white"/>
<path d="M23.7529 5.91774H7.03553C6.34652 5.91774 5.78809 5.3593 5.78809 4.67029C5.78809 3.98129 6.34652 3.42285 7.03553 3.42285H23.7525C24.4415 3.42285 25 3.98129 25 4.67029C25 5.3593 24.4419 5.91774 23.7529 5.91774Z" fill="white"/>
<path d="M1.67532 6.44194C2.60057 6.44194 3.35063 5.69188 3.35063 4.76662C3.35063 3.84137 2.60057 3.09131 1.67532 3.09131C0.750064 3.09131 0 3.84137 0 4.76662C0 5.69188 0.750064 6.44194 1.67532 6.44194Z" fill="white"/>
<path d="M1.67532 14.1758C2.60057 14.1758 3.35063 13.4258 3.35063 12.5005C3.35063 11.5753 2.60057 10.8252 1.67532 10.8252C0.750064 10.8252 0 11.5753 0 12.5005C0 13.4258 0.750064 14.1758 1.67532 14.1758Z" fill="white"/>
<path d="M1.67532 21.9097C2.60057 21.9097 3.35063 21.1596 3.35063 20.2344C3.35063 19.3091 2.60057 18.5591 1.67532 18.5591C0.750064 18.5591 0 19.3091 0 20.2344C0 21.1596 0.750064 21.9097 1.67532 21.9097Z" fill="white"/>
</svg>
