<svg width="25" height="25" viewBox="0 0 25 25" fill="none" xmlns="http://www.w3.org/2000/svg">
<g clip-path="url(#clip0)">
<path d="M23.7524 10.3629L23.7523 10.363L19.3726 14.7182L19.3723 14.7186C18.9545 15.1344 18.7658 15.728 18.8633 16.308C18.8633 16.308 18.8633 16.308 18.8633 16.308L19.897 22.457L19.8973 22.4584C19.9413 22.718 19.8763 22.9501 19.7222 23.1362L19.7212 23.1374C19.5608 23.3316 19.3389 23.4318 19.1166 23.4318C18.9965 23.4318 18.8777 23.4034 18.7558 23.3379L18.7552 23.3376L13.3413 20.4341L13.338 20.4324C12.8211 20.1576 12.1834 20.1538 11.6602 20.4336L11.6592 20.4342L6.24591 23.3375C6.24585 23.3376 6.24579 23.3376 6.24573 23.3376C5.93154 23.5059 5.51776 23.4264 5.2797 23.1378L5.27879 23.1367C5.12421 22.9499 5.05925 22.7182 5.10327 22.4581L5.10346 22.4569L6.13662 16.3083C6.13664 16.3082 6.13667 16.308 6.13669 16.3079C6.23418 15.7284 6.04547 15.1344 5.62774 14.7186L5.62732 14.7182L1.24762 10.3635L1.24756 10.3634C1.02455 10.1417 0.94206 9.81584 1.04183 9.50158C1.14142 9.18941 1.38923 8.98581 1.683 8.94238L1.68334 8.94233L7.73653 8.04514L7.73685 8.04509C8.32637 7.95752 8.82912 7.58186 9.08632 7.04974C9.08643 7.04951 9.08654 7.04927 9.08665 7.04904L11.793 1.45472L11.7932 1.45444C11.9333 1.16451 12.2044 1 12.5002 1C12.7968 1 13.0678 1.16466 13.2078 1.45444L13.208 1.45468L15.9138 7.04853C15.9139 7.04862 15.9139 7.04871 15.914 7.0488C15.914 7.04893 15.9141 7.04906 15.9142 7.04919C16.171 7.58053 16.6728 7.95688 17.2631 8.04458L17.2635 8.04463L23.3164 8.94177C23.3165 8.94179 23.3166 8.9418 23.3167 8.94182C23.6114 8.9857 23.8585 9.1891 23.958 9.50062C24.058 9.81502 23.9756 10.1411 23.7524 10.3629Z" stroke="white" stroke-width="2" stroke-linejoin="round"/>
</g>
<defs>
<clipPath id="clip0">
<rect width="25" height="25" fill="white"/>
</clipPath>
</defs>
</svg>
