<svg width="25" height="25" viewBox="0 0 25 25" fill="none" xmlns="http://www.w3.org/2000/svg">
<path d="M22.3306 9.56272L21.2089 9.37251C21.1091 9.09455 20.9962 8.82186 20.8715 8.55672L21.532 7.63266C22.1067 6.82529 22.0144 5.73488 21.3147 5.0421L19.9669 3.69409C19.5859 3.31313 19.0809 3.10326 18.545 3.10326C18.123 3.10326 17.7194 3.23329 17.3807 3.47703L16.4532 4.13769C16.1663 4.00205 15.8751 3.8822 15.5821 3.77867L15.3966 2.67966C15.2334 1.70629 14.3985 1 13.4113 1H11.507C10.5199 1 9.68503 1.70629 9.52219 2.67773L9.32723 3.81973C9.05191 3.92028 8.78045 4.03451 8.5146 4.16209L7.60388 3.50615C7.2624 3.26031 6.85723 3.13046 6.43205 3.13046C5.89088 3.13046 5.38568 3.34068 5.00893 3.72252L3.65794 5.06912C2.96025 5.76682 2.86882 6.85635 3.4407 7.65968L4.1119 8.60269C3.98819 8.86889 3.87694 9.14281 3.77867 9.42234L2.67949 9.60782C1.70629 9.77119 1 10.6061 1 11.5932V13.4974C1 14.4845 1.70629 15.3194 2.67773 15.4824L3.81973 15.6772C3.92028 15.9527 4.03469 16.2243 4.16209 16.49L3.50861 17.399C2.93393 18.2063 3.02623 19.2969 3.72585 19.9895L5.07369 21.3375C5.45464 21.7185 5.95967 21.9284 6.49557 21.9284C6.91759 21.9284 7.32119 21.7983 7.65968 21.5548L8.60269 20.8836C8.85046 20.9987 9.10736 21.1042 9.3711 21.1991L9.55799 22.3206C9.72135 23.2938 10.5563 24 11.5433 24H13.452C14.439 24 15.2741 23.2938 15.4371 22.3218L15.6274 21.2C15.9053 21.1001 16.178 20.9873 16.4432 20.8625L17.3642 21.5209C17.7057 21.7668 18.1109 21.8968 18.5361 21.8968C19.0718 21.8968 19.5768 21.6869 19.9578 21.306L21.3056 19.9579C22.0035 19.2603 22.0947 18.1707 21.5228 17.3674L20.8617 16.4389C20.9897 16.1677 21.1029 15.8951 21.2003 15.6242L22.3204 15.4375C23.2936 15.2741 23.9999 14.4392 23.9999 13.4522V11.5517C24.0109 10.5636 23.3097 9.72767 22.3306 9.56272ZM22.6522 13.4522C22.6522 13.7784 22.4188 14.0544 22.0981 14.1083L20.6125 14.3559C20.3384 14.4015 20.1173 14.5949 20.035 14.8607C19.903 15.2883 19.7218 15.7255 19.4966 16.1592C19.3692 16.4038 19.3896 16.6953 19.5496 16.9196L20.4251 18.149C20.6139 18.4143 20.5835 18.7744 20.3528 19.0051L19.0049 20.3529C18.8767 20.4812 18.7145 20.5491 18.5361 20.5491C18.3953 20.5491 18.2625 20.507 18.1498 20.4259L16.9257 19.551C16.7006 19.3894 16.4079 19.369 16.162 19.4977C15.7504 19.7132 15.3129 19.8944 14.8618 20.036C14.5985 20.1185 14.4064 20.3389 14.3606 20.6102L14.1083 22.0974C14.0544 22.419 13.7784 22.6524 13.452 22.6524H11.5433C11.2169 22.6524 10.9411 22.419 10.8872 22.0982L10.6396 20.6127C10.5943 20.3403 10.4027 20.1196 10.1395 20.0364C9.69486 19.896 9.27143 19.7219 8.88065 19.5189C8.77413 19.4636 8.65884 19.4364 8.54408 19.4364C8.39563 19.4364 8.24788 19.4821 8.12136 19.5721L6.8753 20.4589C6.763 20.5398 6.63525 20.5807 6.49557 20.5807C6.31711 20.5807 6.15497 20.513 6.0267 20.3845L4.67641 19.0344C4.44601 18.8063 4.4167 18.4473 4.60464 18.1832L5.47482 16.9727C5.63854 16.7455 5.65855 16.4507 5.52659 16.2028C5.30531 15.7878 5.12194 15.3526 4.98138 14.9091C4.89821 14.6477 4.67869 14.4566 4.40845 14.4104L2.90252 14.1537C2.58104 14.0997 2.34766 13.8236 2.34766 13.4974V11.5932C2.34766 11.267 2.58104 10.9909 2.90304 10.9369L4.37038 10.6893C4.64465 10.6431 4.86557 10.4492 4.94717 10.1825C5.08562 9.72943 5.26373 9.29126 5.47658 8.88065C5.60327 8.63656 5.58292 8.34579 5.42341 8.12136L4.53866 6.87829C4.34967 6.61296 4.38003 6.25289 4.61008 6.02284L5.96247 4.675L5.96739 4.66991C6.08899 4.5462 6.25394 4.47812 6.43205 4.47812C6.57278 4.47812 6.70579 4.52023 6.81634 4.5999L8.03204 5.475C8.25964 5.6389 8.55479 5.65855 8.80186 5.52659C9.21686 5.30531 9.65204 5.12194 10.0949 4.98156C10.3564 4.89856 10.5475 4.67939 10.594 4.40845L10.8509 2.90252C10.9048 2.58104 11.1808 2.34766 11.5072 2.34766H13.4114C13.7377 2.34766 14.0137 2.58104 14.0677 2.90304L14.3153 4.3709C14.3617 4.64535 14.5559 4.8661 14.8228 4.94752C15.2778 5.08579 15.7316 5.2725 16.1719 5.50273C16.4165 5.63047 16.7079 5.61047 16.9333 5.45026L18.1655 4.5727C18.2776 4.49181 18.4053 4.45092 18.5452 4.45092C18.7235 4.45092 18.8856 4.51865 19.0141 4.6471L20.3642 5.99722C20.5946 6.22534 20.6241 6.58436 20.4349 6.84986L19.5591 8.07521C19.3984 8.30052 19.3783 8.59287 19.5066 8.83783C19.7223 9.2495 19.9034 9.68696 20.0452 10.1383C20.1278 10.4015 20.348 10.5935 20.6193 10.6393L22.1053 10.8914L22.1065 10.8916C22.4271 10.9455 22.6568 11.2175 22.6522 11.5384V13.4522Z" fill="white"/>
<path d="M12.5 8.02815C10.0342 8.02815 8.02818 10.0342 8.02818 12.5C8.02818 14.9658 10.0342 16.9718 12.5 16.9718C14.9658 16.9718 16.9719 14.9658 16.9719 12.5C16.9719 10.0342 14.9658 8.02815 12.5 8.02815ZM12.5 15.6242C10.7774 15.6242 9.37584 14.2226 9.37584 12.5C9.37584 10.7773 10.7774 9.37581 12.5 9.37581C14.2227 9.37581 15.6242 10.7773 15.6242 12.5C15.6242 14.2226 14.2227 15.6242 12.5 15.6242Z" fill="white"/>
<path d="M22.3306 9.56272L21.2089 9.37251C21.1091 9.09455 20.9962 8.82186 20.8715 8.55672L21.532 7.63266C22.1067 6.82529 22.0144 5.73488 21.3147 5.0421L19.9669 3.69409C19.5859 3.31313 19.0809 3.10326 18.545 3.10326C18.123 3.10326 17.7194 3.23329 17.3807 3.47703L16.4532 4.13769C16.1663 4.00205 15.8751 3.8822 15.5821 3.77867L15.3966 2.67966C15.2334 1.70629 14.3985 1 13.4113 1H11.507C10.5199 1 9.68503 1.70629 9.52219 2.67773L9.32723 3.81973C9.05191 3.92028 8.78045 4.03451 8.5146 4.16209L7.60388 3.50615C7.2624 3.26031 6.85723 3.13046 6.43205 3.13046C5.89088 3.13046 5.38568 3.34068 5.00893 3.72252L3.65794 5.06912C2.96025 5.76682 2.86882 6.85635 3.4407 7.65968L4.1119 8.60269C3.98819 8.86889 3.87694 9.14281 3.77867 9.42234L2.67949 9.60782C1.70629 9.77119 1 10.6061 1 11.5932V13.4974C1 14.4845 1.70629 15.3194 2.67773 15.4824L3.81973 15.6772C3.92028 15.9527 4.03469 16.2243 4.16209 16.49L3.50861 17.399C2.93393 18.2063 3.02623 19.2969 3.72585 19.9895L5.07369 21.3375C5.45464 21.7185 5.95967 21.9284 6.49557 21.9284C6.91759 21.9284 7.32119 21.7983 7.65968 21.5548L8.60269 20.8836C8.85046 20.9987 9.10736 21.1042 9.3711 21.1991L9.55799 22.3206C9.72135 23.2938 10.5563 24 11.5433 24H13.452C14.439 24 15.2741 23.2938 15.4371 22.3218L15.6274 21.2C15.9053 21.1001 16.178 20.9873 16.4432 20.8625L17.3642 21.5209C17.7057 21.7668 18.1109 21.8968 18.5361 21.8968C19.0718 21.8968 19.5768 21.6869 19.9578 21.306L21.3056 19.9579C22.0035 19.2603 22.0947 18.1707 21.5228 17.3674L20.8617 16.4389C20.9897 16.1677 21.1029 15.8951 21.2003 15.6242L22.3204 15.4375C23.2936 15.2741 23.9999 14.4392 23.9999 13.4522V11.5517C24.0109 10.5636 23.3097 9.72767 22.3306 9.56272ZM22.6522 13.4522C22.6522 13.7784 22.4188 14.0544 22.0981 14.1083L20.6125 14.3559C20.3384 14.4015 20.1173 14.5949 20.035 14.8607C19.903 15.2883 19.7218 15.7255 19.4966 16.1592C19.3692 16.4038 19.3896 16.6953 19.5496 16.9196L20.4251 18.149C20.6139 18.4143 20.5835 18.7744 20.3528 19.0051L19.0049 20.3529C18.8767 20.4812 18.7145 20.5491 18.5361 20.5491C18.3953 20.5491 18.2625 20.507 18.1498 20.4259L16.9257 19.551C16.7006 19.3894 16.4079 19.369 16.162 19.4977C15.7504 19.7132 15.3129 19.8944 14.8618 20.036C14.5985 20.1185 14.4064 20.3389 14.3606 20.6102L14.1083 22.0974C14.0544 22.419 13.7784 22.6524 13.452 22.6524H11.5433C11.2169 22.6524 10.9411 22.419 10.8872 22.0982L10.6396 20.6127C10.5943 20.3403 10.4027 20.1196 10.1395 20.0364C9.69486 19.896 9.27143 19.7219 8.88065 19.5189C8.77413 19.4636 8.65884 19.4364 8.54408 19.4364C8.39563 19.4364 8.24788 19.4821 8.12136 19.5721L6.8753 20.4589C6.763 20.5398 6.63525 20.5807 6.49557 20.5807C6.31711 20.5807 6.15497 20.513 6.0267 20.3845L4.67641 19.0344C4.44601 18.8063 4.4167 18.4473 4.60464 18.1832L5.47482 16.9727C5.63854 16.7455 5.65855 16.4507 5.52659 16.2028C5.30531 15.7878 5.12194 15.3526 4.98138 14.9091C4.89821 14.6477 4.67869 14.4566 4.40845 14.4104L2.90252 14.1537C2.58104 14.0997 2.34766 13.8236 2.34766 13.4974V11.5932C2.34766 11.267 2.58104 10.9909 2.90304 10.9369L4.37038 10.6893C4.64465 10.6431 4.86557 10.4492 4.94717 10.1825C5.08562 9.72943 5.26373 9.29126 5.47658 8.88065C5.60327 8.63656 5.58292 8.34579 5.42341 8.12136L4.53866 6.87829C4.34967 6.61296 4.38003 6.25289 4.61008 6.02284L5.96247 4.675L5.96739 4.66991C6.08899 4.5462 6.25394 4.47812 6.43205 4.47812C6.57278 4.47812 6.70579 4.52023 6.81634 4.5999L8.03204 5.475C8.25964 5.6389 8.55479 5.65855 8.80186 5.52659C9.21686 5.30531 9.65204 5.12194 10.0949 4.98156C10.3564 4.89856 10.5475 4.67939 10.594 4.40845L10.8509 2.90252C10.9048 2.58104 11.1808 2.34766 11.5072 2.34766H13.4114C13.7377 2.34766 14.0137 2.58104 14.0677 2.90304L14.3153 4.3709C14.3617 4.64535 14.5559 4.8661 14.8228 4.94752C15.2778 5.08579 15.7316 5.2725 16.1719 5.50273C16.4165 5.63047 16.7079 5.61047 16.9333 5.45026L18.1655 4.5727C18.2776 4.49181 18.4053 4.45092 18.5452 4.45092C18.7235 4.45092 18.8856 4.51865 19.0141 4.6471L20.3642 5.99722C20.5946 6.22534 20.6241 6.58436 20.4349 6.84986L19.5591 8.07521C19.3984 8.30052 19.3783 8.59287 19.5066 8.83783C19.7223 9.2495 19.9034 9.68696 20.0452 10.1383C20.1278 10.4015 20.348 10.5935 20.6193 10.6393L22.1053 10.8914L22.1065 10.8916C22.4271 10.9455 22.6568 11.2175 22.6522 11.5384V13.4522Z" stroke="white" stroke-width="0.4"/>
<path d="M12.5 8.02815C10.0342 8.02815 8.02818 10.0342 8.02818 12.5C8.02818 14.9658 10.0342 16.9718 12.5 16.9718C14.9658 16.9718 16.9719 14.9658 16.9719 12.5C16.9719 10.0342 14.9658 8.02815 12.5 8.02815ZM12.5 15.6242C10.7774 15.6242 9.37584 14.2226 9.37584 12.5C9.37584 10.7773 10.7774 9.37581 12.5 9.37581C14.2227 9.37581 15.6242 10.7773 15.6242 12.5C15.6242 14.2226 14.2227 15.6242 12.5 15.6242Z" stroke="white" stroke-width="0.4"/>
</svg>
